#!OML:ASF H:\Terrain\Patient Classification 1\Walking\liu\liu.ASF
:FULLY-SPECIFIED
:DEGREES
371
root 9.32582 17.0661 15.9672 6.20538 4.43806 -2.81274
lowerback -5.58153 0.0884917 -0.0219499
upperback -0.846729 0.054517 2.70122
thorax 2.25533 0.0191862 2.79997
lowerneck -19.9703 -6.25076 -12.5639
upperneck 21.5619 -8.09418 12.566
head 11.3816 -3.24251 5.44812
rclavicle 1.01504e-014 2.14687e-014
rhumerus -34.0626 17.7429 -84.1263
rradius 44.145
rwrist -22.5242
rhand -31.0499 -23.7987
rfingers 7.12502
rthumb -4.33134 -53.7344
lclavicle 1.01504e-014 2.14687e-014
lhumerus -46.4499 -18.6103 98.0524
lradius 28.6065
lwrist 12.8194
lhand -14.9322 -22.7068
lfingers 7.12502
lthumb 11.2301 6.97263
rfemur -14.0095 5.89567 28.7902
rtibia 29.8718
rfoot -19.3441 2.72046
rtoes -16.938
lfemur -34.0815 5.59464 -18.0041
ltibia 57.8184
lfoot -15.0118 11.8454
ltoes -2.73652
372
root 9.32924 17.0679 16.0878 6.21548 4.0751 -2.84347
lowerback -5.75391 0.22706 -0.102681
upperback -0.71701 0.237172 2.75558
thorax 2.47595 0.106975 2.91803
lowerneck -19.8501 -6.2327 -12.5327
upperneck 21.3521 -8.0472 12.4794
head 11.2668 -3.2333 5.41057
rclavicle 4.5472e-015 -4.41302e-014
rhumerus -33.4758 18.1817 -84.0131
rradius 44.336
rwrist -22.9546
rhand -31.2717 -23.4977
rfingers 7.12502
rthumb -4.5455 -53.4289
lclavicle 4.5472e-015 -4.41302e-014
lhumerus -46.6613 -18.2274 97.9546
lradius 28.438
lwrist 12.7884
lhand -15.166 -22.7834
lfingers 7.12502
lthumb 11.0047 6.90818
rfemur -13.3122 5.88092 28.8612
rtibia 29.3811
rfoot -19.0858 3.05825
rtoes -15.4583
lfemur -34.9207 5.52027 -18.1124
ltibia 56.4926
lfoot -15.0973 12.0244
ltoes -2.94562
373
root 9.33553 17.0711 16.2112 6.20458 3.72204 -3.12444
lowerback -5.76685 0.424179 0.180414
upperback -0.679561 0.480195 2.78835
thorax 2.51135 0.230361 2.81161
lowerneck -19.9861 -6.24637 -12.4559
upperneck 21.49 -8.1014 12.524
head 11.3516 -3.24089 5.4093
rclavicle -9.19379e-016 1.07344e-014
rhumerus -32.9454 18.3189 -83.9713
rradius 44.3713
rwrist -23.2521
rhand -31.2908 -23.7895
rfingers 7.12502
rthumb -4.56391 -53.7204
lclavicle -9.19379e-016 1.07344e-014
lhumerus -46.8679 -17.7878 97.599
lradius 28.256
lwrist 12.1942
lhand -14.627 -22.3701
lfingers 7.12502
lthumb 11.5245 7.29306
rfemur -12.5453 6.16655 29.1828
rtibia 28.751
rfoot -19.2392 3.15822
rtoes -14.1518
lfemur -35.7151 5.4973 -17.8881
ltibia 55.1608
lfoot -14.928 11.8154
ltoes -3.24045
374
root 9.34016 17.0787 16.3353 6.1588 3.26122 -3.22603
lowerback -5.60809 0.682691 0.259873
upperback -0.739992 0.82421 2.80035
thorax 2.34481 0.404198 2.80227
lowerneck -20.0378 -6.2488 -12.4201
upperneck 21.7986 -8.10113 12.3782
head 11.468 -3.25163 5.35759
rclavicle 2.18539e-014 5.52621e-014
rhumerus -32.7125 18.0335 -83.8352
rradius 44.5095
rwrist -23.1722
rhand -31.1265 -24.0977
rfingers 7.12502
rthumb -4.40524 -54.0319
lclavicle 2.18539e-014 5.52621e-014
lhumerus -47.2557 -17.3801 97.4515
lradius 28.0551
lwrist 12.2185
lhand -14.1194 -22.3496
lfingers 7.12502
lthumb 12.014 7.28553
rfemur -11.6535 6.42484 29.3477
rtibia 27.9684
rfoot -19.5124 3.11989
rtoes -15.744
lfemur -36.366 5.54322 -17.9444
ltibia 53.7451
lfoot -14.6903 12.0361
ltoes -5.66355
375
root 9.34694 17.0938 16.4624 6.06177 2.83532 -3.0804
lowerback -5.6868 0.811283 0.0361801
upperback -0.648822 1.00553 2.80841
thorax 2.47035 0.491123 2.95321
lowerneck -19.9745 -6.19445 -12.468
upperneck 21.9305 -8.00977 12.3133
head 11.4903 -3.22381 5.36193
rclavicle -1.52567e-014 -3.97569e-015
rhumerus -32.3631 17.9722 -83.7029
rradius 44.7019
rwrist -22.9503
rhand -31.2057 -24.3368
rfingers 7.12502
rthumb -4.4818 -54.2694
lclavicle -1.52567e-014 -3.97569e-015
lhumerus -47.4239 -16.58 97.0268
lradius 27.7949
lwrist 11.5979
lhand -13.7456 -22.442
lfingers 7.12502
lthumb 12.3744 7.1718
rfemur -10.6124 6.27294 29.2313
rtibia 27.1216
rfoot -19.5642 3.32044
rtoes -16.8183
lfemur -36.8669 5.40687 -18.2038
ltibia 52.2273
lfoot -14.8842 11.8329
ltoes -6.6392
376
root 9.35692 17.1042 16.584 5.97496 2.57623 -3.30791
lowerback -5.73039 0.878366 0.244526
upperback -0.556799 1.07679 2.87849
thorax 2.58859 0.526994 2.91622
lowerneck -19.8454 -6.106 -12.5834
upperneck 21.8978 -7.92744 12.5666
head 11.4587 -3.17154 5.4946
rclavicle -1.20016e-014 1.98785e-014
rhumerus -31.8357 18.1541 -83.6815
rradius 44.6626
rwrist -22.8619
rhand -31.3557 -24.3878
rfingers 7.12502
rthumb -4.62659 -54.3173
lclavicle -1.20016e-014 1.98785e-014
lhumerus -47.4695 -15.8045 96.4749
lradius 27.4886
lwrist 10.8438
lhand -13.4301 -22.5892
lfingers 7.12502
lthumb 12.6786 7.00594
rfemur -9.62577 6.07223 29.4983
rtibia 26.2848
rfoot -19.4988 3.67092
rtoes -13.6306
lfemur -37.4633 5.19461 -17.926
ltibia 50.6498
lfoot -15.1764 11.0926
ltoes -6.01942
377
root 9.36674 17.1126 16.7011 6.00722 2.40052 -3.50722
lowerback -5.72928 1.01488 0.497762
upperback -0.483791 1.23989 2.90919
thorax 2.66011 0.610071 2.81922
lowerneck -19.9051 -6.09203 -12.6646
upperneck 21.8271 -7.89213 12.6618
head 11.447 -3.14943 5.54879
rclavicle 1.78409e-014 4.81059e-014
rhumerus -31.1507 18.304 -83.5683
rradius 44.4898
rwrist -23.0629
rhand -31.5767 -24.6815
rfingers 7.12502
rthumb -4.84003 -54.6062
lclavicle 1.78409e-014 4.81059e-014
lhumerus -47.5113 -15.4787 96.3045
lradius 27.2752
lwrist 11.0584
lhand -13.4248 -22.8168
lfingers 7.12502
lthumb 12.6837 6.778
rfemur -8.67177 5.94652 29.7265
rtibia 25.3012
rfoot -18.9856 3.95264
rtoes -14.7799
lfemur -38.1537 5.00019 -17.7512
ltibia 49.0638
lfoot -15.2505 10.7519
ltoes -7.52311
378
root 9.37535 17.1226 16.834 5.91774 2.22743 -3.47649
lowerback -5.79914 1.13867 0.471401
upperback -0.314565 1.40086 2.89425
thorax 2.86643 0.687894 2.83631
lowerneck -20.1544 -6.18918 -12.6185
upperneck 21.8389 -7.98819 12.5571
head 11.5074 -3.19223 5.48198
rclavicle -3.97569e-015 -1.15295e-014
rhumerus -30.5679 18.4219 -83.4423
rradius 44.5505
rwrist -23.338
rhand -31.8923 -25.987
rfingers 7.12502
rthumb -5.14476 -55.9046
lclavicle -3.97569e-015 -1.15295e-014
lhumerus -47.4568 -14.8436 95.8964
lradius 27.0656
lwrist 10.4881
lhand -13.1974 -22.7831
lfingers 7.12502
lthumb 12.9029 6.79799
rfemur -7.50238 5.69225 29.7488
rtibia 24.3834
rfoot -18.7782 3.95614
rtoes -16.1253
lfemur -38.4752 4.79639 -17.8779
ltibia 47.4061
lfoot -15.0987 10.5621
ltoes -10.0807
379
root 9.37139 17.1082 16.9688 5.66776 1.91817 -4.23539
lowerback -5.67169 1.28228 1.03485
upperback -0.273756 1.55038 3.14829
thorax 2.83859 0.768233 2.79179
lowerneck -19.9681 -6.21595 -12.6145
upperneck 21.8109 -8.04593 12.55
head 11.4688 -3.22526 5.4686
rclavicle -2.36057e-014 -1.39149e-014
rhumerus -30.3509 18.5109 -83.4663
rradius 44.6354
rwrist -23.335
rhand -31.9296 -26.1967
rfingers 7.12502
rthumb -5.18078 -56.1134
lclavicle -2.36057e-014 -1.39149e-014
lhumerus -47.6448 -13.7301 95.2333
lradius 26.8395
lwrist 9.22672
lhand -12.7198 -22.5018
lfingers 7.12502
lthumb 13.3633 7.0497
rfemur -6.30664 6.0398 30.7847
rtibia 23.5881
rfoot -19.015 3.3844
rtoes -18.8427
lfemur -38.7135 4.80031 -17.0136
ltibia 45.7901
lfoot -14.8744 10.2669
ltoes -12.1128
380
root 9.39336 17.0941 17.0787 5.93535 1.77915 -4.18703
lowerback -5.75656 1.3696 1.11216
upperback -0.500837 1.66707 3.13402
thorax 2.64967 0.829037 2.74037
lowerneck -19.5371 -6.16801 -12.7043
upperneck 21.849 -7.9843 12.4789
head 11.3899 -3.228 5.47171
rclavicle -8.99501e-015 -2.10712e-014
rhumerus -30.2018 18.4128 -83.4057
rradius 44.5332
rwrist -23.1541
rhand -31.6154 -24.4356
rfingers 7.12502
rthumb -4.87742 -54.3594
lclavicle -8.99501e-015 -2.10712e-014
lhumerus -48.2102 -13.3265 95.2989
lradius 26.7003
lwrist 9.33534
lhand -12.7287 -22.0205
lfingers 7.12502
lthumb 13.3547 7.53149
rfemur -5.82923 5.70462 30.6212
rtibia 22.7629
rfoot -18.7276 4.07915
rtoes -14.2723
lfemur -39.4223 4.5083 -17.2097
ltibia 44.062
lfoot -14.5693 10.2343
ltoes -14.7544
381
root 9.40083 17.0849 17.2047 6.13309 1.30306 -4.18021
lowerback -5.98608 1.62729 1.0973
upperback -0.561176 2.00727 3.10345
thorax 2.70323 0.998605 2.75046
lowerneck -19.4594 -6.18871 -12.8989
upperneck 22.0251 -8.0235 12.6427
head 11.4644 -3.24563 5.56968
rclavicle -8.19987e-016 1.07344e-014
rhumerus -29.9196 17.9011 -83.2502
rradius 44.4913
rwrist -22.8389
rhand -31.8948 -24.7447
rfingers 7.12502
rthumb -5.14711 -54.6622
lclavicle -8.19987e-016 1.07344e-014
lhumerus -48.7231 -13.6476 95.7961
lradius 26.5632
lwrist 10.4544
lhand -12.958 -21.5762
lfingers 7.12502
lthumb 13.1337 7.99019
rfemur -5.12564 6.03938 30.5791
rtibia 21.8131
rfoot -18.3917 4.15386
rtoes -17.0056
lfemur -40.036 4.51854 -17.2469
ltibia 42.4138
lfoot -14.5488 10.1122
ltoes -14.894
382
root 9.4092 17.0899 17.3471 6.26336 0.837271 -4.33796
lowerback -6.27749 1.86796 1.25744
upperback -0.535891 2.30812 3.0598
thorax 2.88888 1.14955 2.6523
lowerneck -19.5709 -6.19079 -12.869
upperneck 22.1622 -8.09232 12.8448
head 11.5579 -3.24638 5.63645
rclavicle 5.91384e-015 1.23246e-014
rhumerus -29.5248 17.4425 -83.2223
rradius 44.3661
rwrist -22.4655
rhand -32.3328 -26.6303
rfingers 7.12502
rthumb -5.57001 -56.5371
lclavicle 5.91384e-015 1.23246e-014
lhumerus -49.0853 -13.5799 95.7753
lradius 26.4895
lwrist 10.7961
lhand -13.2012 -22.4356
lfingers 7.12502
lthumb 12.8992 7.14572
rfemur -4.26255 6.09031 30.7289
rtibia 21.0423
rfoot -18.5113 4.09427
rtoes -19.316
lfemur -40.4031 4.45748 -17.0427
ltibia 40.6502
lfoot -14.8208 9.95758
ltoes -14.2256
383
root 9.41855 17.0864 17.4788 6.2866 0.626458 -4.65692
lowerback -6.388 1.92403 1.49277
upperback -0.545169 2.35981 3.15148
thorax 2.94504 1.17741 2.62417
lowerneck -19.4739 -6.06849 -12.5025
upperneck 22.2256 -7.9725 12.5567
head 11.5119 -3.19701 5.48453
rclavicle -9.19379e-015 2.78299e-015
rhumerus -29.1465 17.6375 -83.3425
rradius 44.0456
rwrist -22.3205
rhand -32.4451 -26.2403
rfingers 7.12502
rthumb -5.67846 -56.1443
lclavicle -9.19379e-015 2.78299e-015
lhumerus -49.5135 -13.0163 95.5731
lradius 26.4255
lwrist 10.4631
lhand -14.0151 -23.8407
lfingers 7.12502
lthumb 12.1146 5.78859
rfemur -3.27013 5.96884 31.0706
rtibia 20.2109
rfoot -18.4619 4.21786
rtoes -19.9909
lfemur -40.6581 4.35548 -16.6751
ltibia 38.8036
lfoot -14.65 9.58774
ltoes -14.8092
384
root 9.42367 17.0812 17.5954 6.31426 0.460763 -4.63653
lowerback -6.54902 1.96058 1.31954
upperback -0.453534 2.40999 3.22903
thorax 3.1178 1.1989 2.81582
lowerneck -19.1969 -5.99558 -12.5306
upperneck 21.964 -7.85261 12.513
head 11.3401 -3.16043 5.4848
rclavicle -2.07978e-014 -1.35174e-014
rhumerus -28.7665 17.7301 -83.2965
rradius 44.0001
rwrist -22.2622
rhand -32.4925 -25.6287
rfingers 7.12502
rthumb -5.72422 -55.5314
lclavicle -2.07978e-014 -1.35174e-014
lhumerus -49.6291 -12.3938 95.4406
lradius 26.2004
lwrist 9.76713
lhand -14.6384 -23.4217
lfingers 7.12502
lthumb 11.5135 6.24206
rfemur -2.29536 5.78688 31.0665
rtibia 19.2115
rfoot -17.9958 4.40023
rtoes -20.08
lfemur -40.925 4.10296 -16.5843
ltibia 36.8319
lfoot -14.3434 9.25079
ltoes -14.4107
